<svg width="300" height="38" viewBox="0 0 300 38" fill="none" xmlns="http://www.w3.org/2000/svg">
<rect x="73" y="16" width="42" height="8" fill="url(#paint0_linear_2313_34)"/>
<path d="M19 0C8.50659 0 0 8.50659 0 19C0 29.4934 8.50659 38 19 38H67C77.4934 38 86 29.4934 86 19C86 8.50659 77.4934 0 67 0H19ZM124 0C113.507 0 105 8.50659 105 19C105 29.4934 113.507 38 124 38H132H281C291.493 38 300 29.4934 300 19C300 8.50659 291.493 0 281 0H132H124Z" fill="url(#paint1_linear_2313_34)"/>
<path d="M19 0C8.50659 0 0 8.50659 0 19C0 29.4934 8.50659 38 19 38H67C77.4934 38 86 29.4934 86 19C86 8.50659 77.4934 0 67 0H19ZM124 0C113.507 0 105 8.50659 105 19C105 29.4934 113.507 38 124 38H132H281C291.493 38 300 29.4934 300 19C300 8.50659 291.493 0 281 0H132H124Z" stroke="black"/>
<path d="M19 0C8.50659 0 0 8.50659 0 19C0 29.4934 8.50659 38 19 38H67C77.4934 38 86 29.4934 86 19C86 8.50659 77.4934 0 67 0H19ZM124 0C113.507 0 105 8.50659 105 19C105 29.4934 113.507 38 124 38H132H281C291.493 38 300 29.4934 300 19C300 8.50659 291.493 0 281 0H132H124Z" stroke="black" stroke-opacity="0.2"/>
<path d="M29.1326 12.6H31.8386L36.8766 21.752L41.8046 12.6H44.5106V28H41.5406V18.254L38.3066 24.106C38.0866 24.502 37.8592 24.788 37.6246 24.964C37.4046 25.1253 37.1479 25.206 36.8546 25.206H36.0186L32.1026 18.254V28H29.1326V12.6ZM51.5339 22.016L45.8359 12.6H49.1359L53.0519 19.222L56.9679 12.6H60.2679L54.5699 22.016V28H51.5339V22.016Z" fill="black"/>
<path d="M145.67 28C145.171 28 144.753 27.8753 144.416 27.626C144.079 27.3767 143.844 26.9293 143.712 26.284L140.984 12.6H144.064L145.956 23.534H146L149.19 13.414H150.29C150.657 13.414 150.972 13.5093 151.236 13.7C151.515 13.8907 151.727 14.2353 151.874 14.734L154.558 23.512H154.602L156.494 12.6H159.574L156.824 26.284C156.707 26.8707 156.487 27.3033 156.164 27.582C155.856 27.8607 155.431 28 154.888 28H153.612L150.334 17.44H150.29L146.946 28H145.67ZM166.594 28.176C165.435 28.176 164.409 27.934 163.514 27.45C162.634 26.9513 161.945 26.262 161.446 25.382C160.962 24.4873 160.72 23.4533 160.72 22.28V18.32C160.72 17.1467 160.962 16.12 161.446 15.24C161.945 14.3453 162.634 13.656 163.514 13.172C164.409 12.6733 165.435 12.424 166.594 12.424H168.926C170.085 12.424 171.104 12.6733 171.984 13.172C172.879 13.656 173.568 14.3453 174.052 15.24C174.551 16.12 174.8 17.1467 174.8 18.32V22.28C174.8 23.4533 174.551 24.4873 174.052 25.382C173.568 26.262 172.879 26.9513 171.984 27.45C171.104 27.934 170.085 28.176 168.926 28.176H166.594ZM168.926 25.492C169.777 25.492 170.459 25.184 170.972 24.568C171.5 23.952 171.764 23.1453 171.764 22.148V18.452C171.764 17.4547 171.5 16.648 170.972 16.032C170.459 15.416 169.777 15.108 168.926 15.108H166.594C165.743 15.108 165.054 15.416 164.526 16.032C164.013 16.648 163.756 17.4547 163.756 18.452V22.148C163.756 23.1453 164.013 23.952 164.526 24.568C165.054 25.184 165.743 25.492 166.594 25.492H168.926ZM177.08 12.6H185.264C186.598 12.6 187.669 12.9593 188.476 13.678C189.297 14.3967 189.708 15.3427 189.708 16.516V18.056C189.708 18.8187 189.488 19.486 189.048 20.058C188.622 20.6153 187.999 21.0407 187.178 21.334V21.378C187.647 21.686 187.999 22.038 188.234 22.434C188.483 22.83 188.725 23.38 188.96 24.084L190.192 28H187.046L185.88 24.348C185.689 23.7173 185.425 23.248 185.088 22.94C184.75 22.632 184.332 22.478 183.834 22.478H180.116V28H177.08V12.6ZM184.692 19.86C185.308 19.86 185.792 19.6987 186.144 19.376C186.496 19.0387 186.672 18.606 186.672 18.078V16.648C186.672 16.2227 186.54 15.8853 186.276 15.636C186.012 15.372 185.66 15.24 185.22 15.24H180.116V19.86H184.692ZM191.99 12.6H194.696L199.734 21.752L204.662 12.6H207.368V28H204.398V18.254L201.164 24.106C200.944 24.502 200.717 24.788 200.482 24.964C200.262 25.1253 200.005 25.206 199.712 25.206H198.876L194.96 18.254V28H191.99V12.6ZM210.101 12.6H213.137V18.958H220.309V12.6H223.345V28H220.309V21.598H213.137V28H210.101V12.6ZM231.498 28.176C230.34 28.176 229.313 27.934 228.418 27.45C227.538 26.9513 226.849 26.262 226.35 25.382C225.866 24.4873 225.624 23.4533 225.624 22.28V18.32C225.624 17.1467 225.866 16.12 226.35 15.24C226.849 14.3453 227.538 13.656 228.418 13.172C229.313 12.6733 230.34 12.424 231.498 12.424H233.83C234.989 12.424 236.008 12.6733 236.888 13.172C237.783 13.656 238.472 14.3453 238.956 15.24C239.455 16.12 239.704 17.1467 239.704 18.32V22.28C239.704 23.4533 239.455 24.4873 238.956 25.382C238.472 26.262 237.783 26.9513 236.888 27.45C236.008 27.934 234.989 28.176 233.83 28.176H231.498ZM233.83 25.492C234.681 25.492 235.363 25.184 235.876 24.568C236.404 23.952 236.668 23.1453 236.668 22.148V18.452C236.668 17.4547 236.404 16.648 235.876 16.032C235.363 15.416 234.681 15.108 233.83 15.108H231.498C230.648 15.108 229.958 15.416 229.43 16.032C228.917 16.648 228.66 17.4547 228.66 18.452V22.148C228.66 23.1453 228.917 23.952 229.43 24.568C229.958 25.184 230.648 25.492 231.498 25.492H233.83ZM244.118 28C243.473 28 242.952 27.8167 242.556 27.45C242.175 27.0687 241.984 26.57 241.984 25.954V12.6H245.02V25.36H253.38V28H244.118ZM257.052 28C256.421 28 255.908 27.8093 255.512 27.428C255.116 27.0467 254.918 26.548 254.918 25.932V12.6H266.666V15.24H257.954V18.804H266.006V21.444H257.954V25.36H266.666V28H257.052Z" fill="black"/>
<defs>
<linearGradient id="paint0_linear_2313_34" x1="73.28" y1="20.4211" x2="112.34" y2="20.328" gradientUnits="userSpaceOnUse">
<stop stop-color="#FFA59D"/>
<stop offset="1" stop-color="#FE5B7F"/>
</linearGradient>
<linearGradient id="paint1_linear_2313_34" x1="2" y1="21" x2="281" y2="20" gradientUnits="userSpaceOnUse">
<stop stop-color="#FFA59D"/>
<stop offset="1" stop-color="#FE5B7F"/>
</linearGradient>
</defs>
</svg>
